<?xml version="1.0" encoding="UTF-8"?>
<svg version="1.1" xmlns="http://www.w3.org/2000/svg" width="148" height="97">
<path d="M0 0 C0.33 1.98 0.66 3.96 1 6 C3.31 3.69 5.62 1.38 8 -1 C11.84281736 0.92140868 13.80431927 2.5926816 16.75 5.625 C17.54921875 6.44226563 18.3484375 7.25953125 19.171875 8.1015625 C19.77515625 8.72804688 20.3784375 9.35453125 21 10 C25.49464702 8.0060512 29.31738541 4.95812211 33.22265625 2.01367188 C34.90625 0.80078125 34.90625 0.80078125 38 -1 C39.32 -0.67 40.64 -0.34 42 0 C42.495 11.385 42.495 11.385 43 23 C44.65 21.68 46.3 20.36 48 19 C52.42668417 18.54206715 54.2626144 18.5084096 58 21 C58.90238747 23.70716242 59.11851302 25.23776768 59.09765625 28.01171875 C59.09282227 29.14770508 59.09282227 29.14770508 59.08789062 30.30664062 C59.07532227 31.48516602 59.07532227 31.48516602 59.0625 32.6875 C59.05798828 33.48478516 59.05347656 34.28207031 59.04882812 35.10351562 C59.0370585 37.06904257 59.01912348 39.03453085 59 41 C59.99 41 60.98 41 62 41 C61.9175 40.0925 61.835 39.185 61.75 38.25 C62 35 62 35 63.65625 32.90625 C66.34358342 30.72055215 68.39735008 30.04824998 71.75 29.25 C72.73484375 29.00765625 73.7196875 28.7653125 74.734375 28.515625 C75.48203125 28.34546875 76.2296875 28.1753125 77 28 C76.67 26.35 76.34 24.7 76 23 C73.36 23 70.72 23 68 23 C68.33 23.33 68.66 23.66 69 24 C69.04063832 25.66617115 69.042721 27.33388095 69 29 C67.35 28.67 65.7 28.34 64 28 C63.1875 26.3125 63.1875 26.3125 63 24 C65.01898683 21.03881931 66.58425113 19.27158238 70.19921875 18.578125 C73.59907687 18.465733 76.07592245 18.60350438 79.23046875 19.95703125 C82.09740957 23.26698721 81.67783465 26.94614565 81.75 31.1875 C81.77964844 32.03248047 81.80929688 32.87746094 81.83984375 33.74804688 C81.9104699 35.83151822 81.95750795 37.91576506 82 40 C84.38564077 39.42415568 86.66682784 38.77772405 89 38 C88.63088042 40.67611698 88.15144437 41.8431469 86.25 43.8125 C84 45 84 45 81.375 44.8125 C79 44 79 44 77 42 C76.35675781 42.49113281 75.71351562 42.98226562 75.05078125 43.48828125 C70.9743774 45.50821504 67.66166443 45.33376355 63.1875 45.1875 C62.39923828 45.17396484 61.61097656 45.16042969 60.79882812 45.14648438 C58.86558831 45.11133456 56.93270318 45.05753361 55 45 C53.79970092 42.59940183 53.88540257 41.10639351 53.90234375 38.4296875 C53.90717773 37.08583984 53.90717773 37.08583984 53.91210938 35.71484375 C53.92467773 34.30912109 53.92467773 34.30912109 53.9375 32.875 C53.94201172 31.93011719 53.94652344 30.98523438 53.95117188 30.01171875 C53.96297643 27.67441613 53.97944241 25.33723939 54 23 C50.56593805 23.31485337 50.56593805 23.31485337 47 24 C43.53723596 28.38616778 42.84799502 32.73378051 42.4375 38.1875 C42.31181641 39.81751953 42.31181641 39.81751953 42.18359375 41.48046875 C42.12300781 42.31191406 42.06242187 43.14335938 42 44 C40.54263913 44.19491452 39.08405407 44.38069358 37.625 44.5625 C36.40683594 44.71912109 36.40683594 44.71912109 35.1640625 44.87890625 C33 45 33 45 31 44 C31 37.07 31 30.14 31 23 C24.33094873 23.26515614 24.33094873 23.26515614 21.6875 26.1875 C19.11348556 30.65352506 18.95636324 36.0257979 18.39453125 41.05078125 C18 44 18 44 17 45 C15.33570949 45.09823937 13.66718069 45.12973631 12 45.125 C10.63875 45.12886719 10.63875 45.12886719 9.25 45.1328125 C7 45 7 45 6 44 C5.84344973 42.51361008 5.74933057 41.02050873 5.68359375 39.52734375 C5.64169922 38.62822266 5.59980469 37.72910156 5.55664062 36.80273438 C5.51732422 35.85720703 5.47800781 34.91167969 5.4375 33.9375 C5.39431641 32.98810547 5.35113281 32.03871094 5.30664062 31.06054688 C5.20020724 28.70718647 5.09818992 26.35371646 5 24 C4.01 23.67 3.02 23.34 2 23 C2 21.68 2 20.36 2 19 C7.28 19 12.56 19 18 19 C18.495 21.475 18.495 21.475 19 24 C19.845625 23.175 20.69125 22.35 21.5625 21.5 C24.21404277 19.2882866 25.0550582 18.99253448 28.6875 18.5 C32.2136304 19.0322461 32.93843239 19.25367413 35 22 C35.34057617 24.0847168 35.34057617 24.0847168 35.29296875 26.44921875 C35.2784668 27.72055664 35.2784668 27.72055664 35.26367188 29.01757812 C35.23853516 29.89865234 35.21339844 30.77972656 35.1875 31.6875 C35.16719727 33.02651367 35.16719727 33.02651367 35.14648438 34.39257812 C35.11114079 36.59566166 35.06180493 38.79752582 35 41 C35.99 41 36.98 41 38 41 C37.67 29.12 37.34 17.24 37 5 C33.04 7.97 29.08 10.94 25 14 C23.35 14.33 21.7 14.66 20 15 C17.90234375 13.41796875 17.90234375 13.41796875 15.9375 11.1875 C13.22842839 8.15655849 11.76226671 6.88113335 8 5 C3.71 9.29 -0.58 13.58 -5 18 C-3.700625 19.11375 -2.40125 20.2275 -1.0625 21.375 C3.81854839 25.55875576 3.81854839 25.55875576 4.2734375 29.171875 C4.58163143 36.99525931 4.58163143 36.99525931 1.875 40.5 C-2.46056525 44.27005674 -5.84567261 45.24108805 -11.5 44.9375 C-16.3696282 44.23949258 -18.66140781 42.58287943 -22 39 C-23.56824704 36.27261384 -24.05876501 34.77033267 -23.8203125 31.64453125 C-22.75403424 28.20705326 -21.04044843 26.64380344 -18.4375 24.1875 C-17.61121094 23.39730469 -16.78492188 22.60710938 -15.93359375 21.79296875 C-15.29550781 21.20128906 -14.65742188 20.60960938 -14 20 C-14.433125 19.5875 -14.86625 19.175 -15.3125 18.75 C-18.29889254 15.65300033 -20.43982466 13.30237399 -20.625 8.875 C-19.94390356 4.65220205 -19.03595107 2.94665839 -16 0 C-11.34755986 -2.32622007 -4.9262419 -0.98524838 0 0 Z M-16 5 C-16.51493064 8.97232205 -16.58122939 11.13891941 -14.3125 14.5 C-12.10983024 16.22674629 -12.10983024 16.22674629 -9.5 16 C-6.58408418 14.83363367 -5.0475053 13.35083942 -3 11 C-3.8604139 6.66770285 -3.8604139 6.66770285 -6 3 C-11.32673036 2.66143172 -11.32673036 2.66143172 -16 5 Z M-9 21 C-12.63 24.63 -16.26 28.26 -20 32 C-18.61912936 37.7257206 -18.61912936 37.7257206 -15.9375 39.9375 C-11.74195033 41.45503924 -8.27867473 41.1494947 -4 40 C-1.28892287 38.62283334 -1.28892287 38.62283334 0 36 C0.4546225 32.81764249 0.70124023 31.01473362 0 28 C-2.77792053 24.45043488 -4.94284688 23.02857656 -9 21 Z M10 22 C10 28.27 10 34.54 10 41 C11.32 41 12.64 41 14 41 C14 35.06 14 29.12 14 23 C12.68 22.67 11.36 22.34 10 22 Z M70.375 33 C69.14910156 33.556875 69.14910156 33.556875 67.8984375 34.125 C67.27195312 34.41375 66.64546875 34.7025 66 35 C65.957279 36.66611905 65.95936168 38.33382885 66 40 C67.16475062 41.37771762 67.16475062 41.37771762 70.375 41.3125 C73.95527517 41.35348665 73.95527517 41.35348665 75.9375 39.375 C77.25066255 36.43969547 77.21691118 34.18136394 77 31 C74.39473112 31 72.73963271 31.91902505 70.375 33 Z " fill="#2B3135" transform="translate(42,12)"/>
<path d="M0 0 C1.22589844 0.01353516 1.22589844 0.01353516 2.4765625 0.02734375 C3.41628906 0.04474609 3.41628906 0.04474609 4.375 0.0625 C4.375 2.90217231 3.97232819 5.29985711 3.375 8.0625 C3.849375 7.5675 4.32375 7.0725 4.8125 6.5625 C8.60338752 4.34344389 12.08349502 4.36513044 16.375 5.0625 C19.97729744 7.20854954 21.81361353 9.2153 23.375 13.0625 C23.70092984 17.73416102 22.96786595 21.20014953 20.3125 25.0625 C16.66979088 27.54264238 13.78756607 28.53650612 9.375 28.0625 C6.65296176 26.57775187 4.55955806 25.24705806 2.375 23.0625 C1.385 24.7125 0.395 26.3625 -0.625 28.0625 C-3.72610365 28.04924742 -6.62335142 27.87361674 -9.625 27.0625 C-13.625 22.47713415 -13.625 22.47713415 -13.625 19.0625 C-14.945 19.0625 -16.265 19.0625 -17.625 19.0625 C-17.625 21.7025 -17.625 24.3425 -17.625 27.0625 C-18.945 27.0625 -20.265 27.0625 -21.625 27.0625 C-21.625 19.8025 -21.625 12.5425 -21.625 5.0625 C-12.4453125 4.8671875 -12.4453125 4.8671875 -9.625 5.0625 C-8.965 5.7225 -8.305 6.3825 -7.625 7.0625 C-7.50125 6.093125 -7.3775 5.12375 -7.25 4.125 C-7.04375 3.114375 -6.8375 2.10375 -6.625 1.0625 C-4.21954362 -0.14022819 -2.67503047 -0.03821472 0 0 Z M-17.625 9.0625 C-17.625 11.0425 -17.625 13.0225 -17.625 15.0625 C-15.645 15.0625 -13.665 15.0625 -11.625 15.0625 C-10.51663577 13.17933841 -10.51663577 13.17933841 -9.625 11.0625 C-9.955 10.4025 -10.285 9.7425 -10.625 9.0625 C-12.935 9.0625 -15.245 9.0625 -17.625 9.0625 Z M6.4375 10.625 C4.94708262 14.04419282 4.84795927 16.37321492 5.375 20.0625 C7.36520117 22.72134601 7.36520117 22.72134601 10.375 24.0625 C13.52210302 24.31579784 13.52210302 24.31579784 16.375 23.0625 C18.89866824 20.21319714 19.40243228 18.74830708 19.25 14.9375 C18.19611865 11.30219341 18.19611865 11.30219341 15.375 9.0625 C10.54782021 8.41429877 10.54782021 8.41429877 6.4375 10.625 Z M1.375 10.0625 C-0.04077477 11.24674326 -0.04077477 11.24674326 0.3125 14.625 C0.333125 15.759375 0.35375 16.89375 0.375 18.0625 C0.705 18.0625 1.035 18.0625 1.375 18.0625 C1.705 15.4225 2.035 12.7825 2.375 10.0625 C2.045 10.0625 1.715 10.0625 1.375 10.0625 Z M-5.625 11.0625 C-7.65935531 14.79215139 -8.625 16.73155042 -8.625 21.0625 C-7.20522091 23.28993787 -7.20522091 23.28993787 -5.625 25.0625 C-4.67238513 20.29942563 -4.54166643 15.8958472 -4.625 11.0625 C-4.955 11.0625 -5.285 11.0625 -5.625 11.0625 Z " fill="#1F272C" transform="translate(87.625,56.9375)"/>
<path d="M0 0 C0.33 0 0.66 0 1 0 C1.33 7.59 1.66 15.18 2 23 C3.65 21.68 5.3 20.36 7 19 C11.42668417 18.54206715 13.2626144 18.5084096 17 21 C17.90238747 23.70716242 18.11851302 25.23776768 18.09765625 28.01171875 C18.09443359 28.76904297 18.09121094 29.52636719 18.08789062 30.30664062 C18.07951172 31.09232422 18.07113281 31.87800781 18.0625 32.6875 C18.05798828 33.48478516 18.05347656 34.28207031 18.04882812 35.10351562 C18.0370585 37.06904257 18.01912348 39.03453085 18 41 C18.99 41 19.98 41 21 41 C20.9175 40.0925 20.835 39.185 20.75 38.25 C21 35 21 35 22.65625 32.90625 C25.34358342 30.72055215 27.39735008 30.04824998 30.75 29.25 C31.73484375 29.00765625 32.7196875 28.7653125 33.734375 28.515625 C34.48203125 28.34546875 35.2296875 28.1753125 36 28 C35.67 26.35 35.34 24.7 35 23 C32.36 23 29.72 23 27 23 C27.33 23.33 27.66 23.66 28 24 C28.04063832 25.66617115 28.042721 27.33388095 28 29 C26.35 28.67 24.7 28.34 23 28 C22.1875 26.3125 22.1875 26.3125 22 24 C24.01898683 21.03881931 25.58425113 19.27158238 29.19921875 18.578125 C32.59907687 18.465733 35.07592245 18.60350438 38.23046875 19.95703125 C41.09740957 23.26698721 40.67783465 26.94614565 40.75 31.1875 C40.77964844 32.03248047 40.80929688 32.87746094 40.83984375 33.74804688 C40.9104699 35.83151822 40.95750795 37.91576506 41 40 C43.38564077 39.42415568 45.66682784 38.77772405 48 38 C47.63088042 40.67611698 47.15144437 41.8431469 45.25 43.8125 C43 45 43 45 40.375 44.8125 C38 44 38 44 36 42 C35.03513672 42.73669922 35.03513672 42.73669922 34.05078125 43.48828125 C29.9743774 45.50821504 26.66166443 45.33376355 22.1875 45.1875 C21.39923828 45.17396484 20.61097656 45.16042969 19.79882812 45.14648438 C17.86558831 45.11133456 15.93270318 45.05753361 14 45 C12.79970092 42.59940183 12.88540257 41.10639351 12.90234375 38.4296875 C12.90556641 37.53378906 12.90878906 36.63789062 12.91210938 35.71484375 C12.92048828 34.77769531 12.92886719 33.84054688 12.9375 32.875 C12.94201172 31.93011719 12.94652344 30.98523438 12.95117188 30.01171875 C12.96297643 27.67441613 12.97944241 25.33723939 13 23 C9.56593805 23.31485337 9.56593805 23.31485337 6 24 C2.53723596 28.38616778 1.84799502 32.73378051 1.4375 38.1875 C1.35371094 39.27417969 1.26992187 40.36085937 1.18359375 41.48046875 C1.12300781 42.31191406 1.06242187 43.14335938 1 44 C-0.45736087 44.19491452 -1.91594593 44.38069358 -3.375 44.5625 C-4.59316406 44.71912109 -4.59316406 44.71912109 -5.8359375 44.87890625 C-8 45 -8 45 -10 44 C-10 37.73 -10 31.46 -10 25 C-9.67 25 -9.34 25 -9 25 C-8.67 30.94 -8.34 36.88 -8 43 C-5.36 43 -2.72 43 0 43 C-0.0721875 42.37996094 -0.144375 41.75992188 -0.21875 41.12109375 C-1.65900344 27.37867548 -0.94199454 13.7430275 0 0 Z M29.375 33 C28.14910156 33.556875 28.14910156 33.556875 26.8984375 34.125 C26.27195313 34.41375 25.64546875 34.7025 25 35 C24.957279 36.66611905 24.95936168 38.33382885 25 40 C26.16475062 41.37771762 26.16475062 41.37771762 29.375 41.3125 C32.95527517 41.35348665 32.95527517 41.35348665 34.9375 39.375 C36.25066255 36.43969547 36.21691118 34.18136394 36 31 C33.39473112 31 31.73963271 31.91902505 29.375 33 Z " fill="#22292D" transform="translate(83,12)"/>
<path d="M0 0 C48.51 0 97.02 0 147 0 C147 32.01 147 64.02 147 97 C98.49 97 49.98 97 0 97 C0 64.99 0 32.98 0 0 Z M1 1 C1 32.35 1 63.7 1 96 C48.85 96 96.7 96 146 96 C146 64.65 146 33.3 146 1 C98.15 1 50.3 1 1 1 Z " fill="#F6F6F5" transform="translate(0,0)"/>
<path d="M0 0 C0.33 0.99 0.66 1.98 1 3 C2.0725 3.433125 3.145 3.86625 4.25 4.3125 C8.23692551 5.92371114 11.12884929 8.05162471 13 12 C13.83121709 16.15608544 13.95291797 20.02955945 12.078125 23.90625 C9.30398959 27.58107872 6.46190023 29.22774804 2 30 C-2.72767689 30.13604826 -6.6261731 29.70401131 -10.4375 26.75 C-12.92179938 24.08392262 -14.20649824 22.52667448 -15 19 C-14.64444701 14.3237053 -12.82187683 12.43205861 -9.4375 9.3125 C-7.92578436 7.90926941 -6.43800494 6.47867578 -5 5 C-5 4.34 -5 3.68 -5 3 C-4.34 3 -3.68 3 -3 3 C-1.37485532 1.54166642 -1.37485532 1.54166642 0 0 Z M0 6 C-3.63 9.63 -7.26 13.26 -11 17 C-9.61912936 22.7257206 -9.61912936 22.7257206 -6.9375 24.9375 C-2.74195033 26.45503924 0.72132527 26.1494947 5 25 C7.71107713 23.62283334 7.71107713 23.62283334 9 21 C9.4546225 17.81764249 9.70124023 16.01473362 9 13 C6.22207947 9.45043488 4.05715312 8.02857656 0 6 Z " fill="#3B4145" transform="translate(33,27)"/>
<path d="M0 0 C1.32 0 2.64 0 4 0 C5.77668893 1.97671352 7.25081953 3.83180414 8.75 6 C9.16121094 6.57234375 9.57242187 7.1446875 9.99609375 7.734375 C11.00912993 9.14791385 12.0061373 10.5729151 13 12 C13.33 8.04 13.66 4.08 14 0 C15.32 0 16.64 0 18 0 C18 7.26 18 14.52 18 22 C12.21745427 20.84349085 11.84150446 20.08832013 8.6875 15.4375 C7.99011719 14.42558594 7.29273438 13.41367188 6.57421875 12.37109375 C6.05472656 11.58863281 5.53523438 10.80617188 5 10 C4.67 13.96 4.34 17.92 4 22 C2.68 22 1.36 22 0 22 C0 14.74 0 7.48 0 0 Z " fill="#22292E" transform="translate(12,62)"/>
<path d="M0 0 C11.34179024 -0.49312131 11.34179024 -0.49312131 14.3984375 1.796875 C16 4 16 4 15.875 7.5 C15 11 15 11 13.75 13.125 C13.5025 13.74375 13.255 14.3625 13 15 C14.31865712 17.64225405 14.31865712 17.64225405 16 20 C16 20.66 16 21.32 16 22 C13.6875 21.8125 13.6875 21.8125 11 21 C8 16.96551724 8 16.96551724 8 14 C6.68 14 5.36 14 4 14 C4 16.64 4 19.28 4 22 C2.68 22 1.36 22 0 22 C0 14.74 0 7.48 0 0 Z M4 4 C4 5.98 4 7.96 4 10 C5.98 10 7.96 10 10 10 C11.10836423 8.11683841 11.10836423 8.11683841 12 6 C11.67 5.34 11.34 4.68 11 4 C8.69 4 6.38 4 4 4 Z " fill="#1D2529" transform="translate(112,62)"/>
<path d="M0 0 C11.49547354 -0.37082173 11.49547354 -0.37082173 13.88671875 1.38671875 C15 3 15 3 15 5 C15.66 5.33 16.32 5.66 17 6 C16.505 6.9075 16.01 7.815 15.5 8.75 C13.17573442 13.78590875 14.18072029 16.9969808 16 22 C13.6875 21.8125 13.6875 21.8125 11 21 C8 16.96551724 8 16.96551724 8 14 C6.68 14 5.36 14 4 14 C4 16.64 4 19.28 4 22 C2.68 22 1.36 22 0 22 C0 14.74 0 7.48 0 0 Z M4 4 C4 5.98 4 7.96 4 10 C5.98 10 7.96 10 10 10 C11.10836423 8.11683841 11.10836423 8.11683841 12 6 C11.67 5.34 11.34 4.68 11 4 C8.69 4 6.38 4 4 4 Z " fill="#1C2328" transform="translate(66,62)"/>
<path d="M0 0 C0.33 0 0.66 0 1 0 C1.33 7.59 1.66 15.18 2 23 C3.65 21.68 5.3 20.36 7 19 C11.42668417 18.54206715 13.2626144 18.5084096 17 21 C17.34057617 23.15478516 17.34057617 23.15478516 17.29296875 25.7890625 C17.28330078 26.73007812 17.27363281 27.67109375 17.26367188 28.640625 C17.23853516 29.62546875 17.21339844 30.6103125 17.1875 31.625 C17.16719727 33.11386719 17.16719727 33.11386719 17.14648438 34.6328125 C17.11105743 37.08908072 17.06166196 39.54427285 17 42 C18.32 42.33 19.64 42.66 21 43 C18.69 43 16.38 43 14 43 C13.505 33.1 13.505 33.1 13 23 C6.23100488 23.14632863 6.23100488 23.14632863 4.125 26.375 C2.39122647 30.42047156 1.76656247 33.8156701 1.4375 38.1875 C1.35371094 39.27417969 1.26992187 40.36085937 1.18359375 41.48046875 C1.12300781 42.31191406 1.06242187 43.14335938 1 44 C-0.45736087 44.19491452 -1.91594593 44.38069358 -3.375 44.5625 C-4.59316406 44.71912109 -4.59316406 44.71912109 -5.8359375 44.87890625 C-8 45 -8 45 -10 44 C-10 37.73 -10 31.46 -10 25 C-9.67 25 -9.34 25 -9 25 C-8.67 30.94 -8.34 36.88 -8 43 C-5.36 43 -2.72 43 0 43 C-0.0721875 42.37996094 -0.144375 41.75992188 -0.21875 41.12109375 C-1.65900344 27.37867548 -0.94199454 13.7430275 0 0 Z " fill="#30363A" transform="translate(83,12)"/>
<path d="M0 0 C4.95 0 9.9 0 15 0 C15 1.32 15 2.64 15 4 C11.37 4 7.74 4 4 4 C4 5.65 4 7.3 4 9 C7.3 9 10.6 9 14 9 C14 10.32 14 11.64 14 13 C10.7 13 7.4 13 4 13 C4 14.65 4 16.3 4 18 C7.63 18 11.26 18 15 18 C15 19.32 15 20.64 15 22 C10.05 22 5.1 22 0 22 C0 14.74 0 7.48 0 0 Z " fill="#242B30" transform="translate(49,62)"/>
<path d="M0 0 C2.5 1.875 2.5 1.875 4 4 C4 4.66 4 5.32 4 6 C2.68 6.33 1.36 6.66 0 7 C-0.33 6.34 -0.66 5.68 -1 5 C-2.65 5 -4.3 5 -6 5 C-6.33 5.99 -6.66 6.98 -7 8 C-5.741875 8.268125 -4.48375 8.53625 -3.1875 8.8125 C-0.80591123 9.4237042 0.90601547 9.94125967 3 11.25 C4.5384479 13.94228383 4.3790979 15.96721679 4 19 C2.9375 20.8125 2.9375 20.8125 1 22 C-2.89709388 23.01035767 -5.12147548 23.36286882 -8.875 21.8125 C-11.16507321 19.85920226 -11.69542509 18.94422416 -12 16 C-10.1875 15.3125 -10.1875 15.3125 -8 15 C-7 16 -6 17 -5 18 C-2.37429296 18.25069913 -2.37429296 18.25069913 0 18 C0 16.68 0 15.36 0 14 C-1.258125 13.731875 -2.51625 13.46375 -3.8125 13.1875 C-6.19408877 12.5762958 -7.90601547 12.05874033 -10 10.75 C-11.5384479 8.05771617 -11.3790979 6.03278321 -11 3 C-8.78104148 -1.16054723 -4.17195658 -0.78066793 0 0 Z " fill="#21282D" transform="translate(140,62)"/>
<path d="M0 0 C0.99 0 1.98 0 3 0 C3 14.52 3 29.04 3 44 C0.36 44 -2.28 44 -5 44 C-5.33466374 41.04181155 -5.66779007 38.08346412 -6 35.125 C-6.09539062 34.28324219 -6.19078125 33.44148438 -6.2890625 32.57421875 C-6.37929687 31.76855469 -6.46953125 30.96289062 -6.5625 30.1328125 C-6.64628906 29.38918457 -6.73007813 28.64555664 -6.81640625 27.87939453 C-7 26 -7 26 -7 24 C-9.31 23.67 -11.62 23.34 -14 23 C-13.505 21.515 -13.505 21.515 -13 20 C-6.50986332 19.63263377 -6.50986332 19.63263377 -4.2878418 21.23364258 C-2.65755954 23.469679 -2.65172167 24.70217641 -2.70703125 27.44921875 C-2.71669922 28.29677734 -2.72636719 29.14433594 -2.73632812 30.01757812 C-2.76146484 30.89865234 -2.78660156 31.77972656 -2.8125 32.6875 C-2.82603516 33.58017578 -2.83957031 34.47285156 -2.85351562 35.39257812 C-2.88885921 37.59566166 -2.93819507 39.79752582 -3 42 C-2.01 42 -1.02 42 0 42 C-0.00523682 41.31075439 -0.01047363 40.62150879 -0.01586914 39.91137695 C-0.18272378 14.62339399 -0.18272378 14.62339399 1 4 C0.34 4 -0.32 4 -1 4 C-0.67 2.68 -0.34 1.36 0 0 Z " fill="#151D22" transform="translate(80,11)"/>
<path d="M0 0 C5.61 0 11.22 0 17 0 C17 1.32 17 2.64 17 4 C15.02 4 13.04 4 11 4 C11 9.94 11 15.88 11 22 C9.35 22 7.7 22 6 22 C6 16.39 6 10.78 6 5 C3.03 4.505 3.03 4.505 0 4 C0 2.68 0 1.36 0 0 Z " fill="#3D4347" transform="translate(31,62)"/>
<path d="M0 0 C2.51616834 0.56543109 3.4562812 1.51731443 5.0859375 3.46875 C4.4259375 3.46875 3.7659375 3.46875 3.0859375 3.46875 C3.18132812 4.19320312 3.27671875 4.91765625 3.375 5.6640625 C4.00079204 11.12155121 4.44747072 15.32894239 2.0859375 20.46875 C0.65505222 17.60697943 1.48602053 15.53499227 2.0859375 12.46875 C0.43173528 13.00614056 -1.21239545 13.57461008 -2.8515625 14.15625 C-3.76808594 14.46949219 -4.68460937 14.78273438 -5.62890625 15.10546875 C-8.17938463 16.28132756 -8.17938463 16.28132756 -8.73046875 19.11328125 C-8.79105469 19.89058594 -8.85164063 20.66789062 -8.9140625 21.46875 C-9.2440625 21.46875 -9.5740625 21.46875 -9.9140625 21.46875 C-9.9140625 19.81875 -9.9140625 18.16875 -9.9140625 16.46875 C-10.5740625 16.46875 -11.2340625 16.46875 -11.9140625 16.46875 C-11.5840625 15.47875 -11.2540625 14.48875 -10.9140625 13.46875 C-8.48046875 12.30078125 -8.48046875 12.30078125 -5.4765625 11.28125 C-4.48785156 10.93707031 -3.49914062 10.59289063 -2.48046875 10.23828125 C0.0859375 9.46875 0.0859375 9.46875 2.0859375 9.46875 C1.7559375 7.81875 1.4259375 6.16875 1.0859375 4.46875 C-1.5540625 4.46875 -4.1940625 4.46875 -6.9140625 4.46875 C-6.5840625 4.79875 -6.2540625 5.12875 -5.9140625 5.46875 C-5.87342418 7.13492115 -5.8713415 8.80263095 -5.9140625 10.46875 C-7.5640625 10.13875 -9.2140625 9.80875 -10.9140625 9.46875 C-11.7265625 7.78125 -11.7265625 7.78125 -11.9140625 5.46875 C-8.54035504 0.52064572 -5.62051111 -0.07673053 0 0 Z " fill="#3A4043" transform="translate(116.9140625,30.53125)"/>
<path d="M0 0 C7.9529703 -0.62376238 7.9529703 -0.62376238 11.9375 1.75 C14.41481029 4.45252032 15.92053463 6.49545558 16.1171875 10.21875 C15.45762104 16.43144053 15.45762104 16.43144053 12.9375 19.5625 C12.298125 20.036875 11.65875 20.51125 11 21 C10.67 20.34 10.34 19.68 10 19 C9.34 19.33 8.68 19.66 8 20 C2.46153846 20.23076923 2.46153846 20.23076923 0 19 C0.33 18.34 0.66 17.68 1 17 C2.3921875 17.309375 2.3921875 17.309375 3.8125 17.625 C7.15173402 18.36692966 7.15173402 18.36692966 10 16 C11.09972341 12.46517475 11.2589933 10.64748324 9.875 7.1875 C7.64317461 4.58370371 6.35760377 4.27223814 3 4 C3 3.34 3 2.68 3 2 C2.01 1.34 1.02 0.68 0 0 Z " fill="#2C3337" transform="translate(95,62)"/>
<path d="M0 0 C1.22589844 0.01353516 1.22589844 0.01353516 2.4765625 0.02734375 C3.41628906 0.04474609 3.41628906 0.04474609 4.375 0.0625 C4.375 3.01524099 3.93608169 4.55308403 2.875 7.25 C2.5965625 7.96542969 2.318125 8.68085937 2.03125 9.41796875 C1.8146875 9.96066406 1.598125 10.50335938 1.375 11.0625 C0.715 11.0625 0.055 11.0625 -0.625 11.0625 C-0.74875 11.701875 -0.8725 12.34125 -1 13 C-1.20625 13.680625 -1.4125 14.36125 -1.625 15.0625 C-2.615 15.5575 -2.615 15.5575 -3.625 16.0625 C-4.32588156 14.31781628 -5.01024009 12.56648839 -5.6875 10.8125 C-6.07035156 9.83796875 -6.45320313 8.8634375 -6.84765625 7.859375 C-7.63759719 5.01717542 -7.7970592 3.73798593 -6.625 1.0625 C-4.21954362 -0.14022819 -2.67503047 -0.03821472 0 0 Z " fill="#2D3331" transform="translate(87.625,56.9375)"/>
<path d="M0 0 C0.33 0 0.66 0 1 0 C1.02505615 0.70084717 1.0501123 1.40169434 1.07592773 2.1237793 C1.19226545 5.31185488 1.31482044 8.49966242 1.4375 11.6875 C1.47681641 12.79029297 1.51613281 13.89308594 1.55664062 15.02929688 C1.61948242 16.6293457 1.61948242 16.6293457 1.68359375 18.26171875 C1.72025146 19.24100342 1.75690918 20.22028809 1.79467773 21.22924805 C1.93504776 24.00196569 1.93504776 24.00196569 2.58227539 26.67114258 C3 29 3 29 2 32 C1.77674186 34.05893621 1.59294241 36.12233653 1.4375 38.1875 C1.35371094 39.27417969 1.26992187 40.36085937 1.18359375 41.48046875 C1.12300781 42.31191406 1.06242187 43.14335938 1 44 C-0.45736087 44.19491452 -1.91594593 44.38069358 -3.375 44.5625 C-4.59316406 44.71912109 -4.59316406 44.71912109 -5.8359375 44.87890625 C-8 45 -8 45 -10 44 C-10 37.73 -10 31.46 -10 25 C-9.67 25 -9.34 25 -9 25 C-8.67 30.94 -8.34 36.88 -8 43 C-5.36 43 -2.72 43 0 43 C-0.0721875 42.37996094 -0.144375 41.75992188 -0.21875 41.12109375 C-1.65900344 27.37867548 -0.94199454 13.7430275 0 0 Z " fill="#5E6264" transform="translate(83,12)"/>
<path d="M0 0 C0.99 0.33 1.98 0.66 3 1 C3.6875 4.25 3.6875 4.25 4 8 C3.01268258 9.34275169 2.01405257 10.67732273 1 12 C1.68931667 14.55711372 1.68931667 14.55711372 3 17 C3.35858516 18.32676508 3.7018576 19.65835921 4 21 C1.6875 20.875 1.6875 20.875 -1 20 C-2.9375 17.1875 -2.9375 17.1875 -4 14 C-3.1875 11.625 -3.1875 11.625 -2 10 C-4.31 10 -6.62 10 -9 10 C-9 7.36 -9 4.72 -9 2 C-6.69 2 -4.38 2 -2 2 C-2 2.33 -2 2.66 -2 3 C-3.98 3 -5.96 3 -8 3 C-8 4.98 -8 6.96 -8 9 C-5.69 8.34 -3.38 7.68 -1 7 C-1.020625 6.030625 -1.04125 5.06125 -1.0625 4.0625 C-1 1 -1 1 0 0 Z " fill="#30373B" transform="translate(124,63)"/>
<path d="M0 0 C0.33 0.99 0.66 1.98 1 3 C4.00847418 4.22520264 4.00847418 4.22520264 7 5 C5.03319304 6.05364659 3.36831212 6.94082089 1.15234375 7.296875 C-1.87624962 8.28625214 -3.45824246 10.06113412 -5.6875 12.3125 C-6.47511719 13.09238281 -7.26273438 13.87226562 -8.07421875 14.67578125 C-9.929586 16.91501759 -10.61725647 18.16510303 -11 21 C-11.33 20.67 -11.66 20.34 -12 20 C-12.66 20.66 -13.32 21.32 -14 22 C-14.9375 19.5 -14.9375 19.5 -15 16 C-13.46900868 13.74879587 -11.7553756 11.88053109 -9.859375 9.9296875 C-7.96379127 8.04351663 -7.96379127 8.04351663 -6.43359375 5.8984375 C-4.60446432 3.47621161 -2.41031564 1.82402265 0 0 Z " fill="#3B4144" transform="translate(33,27)"/>
<path d="M0 0 C2.3125 0.8125 2.3125 0.8125 3.3125 2.8125 C3.75840164 8.05184426 3.75840164 8.05184426 2.25 10.625 C-0.73310004 12.45335164 -3.21488683 12.69275472 -6.6875 12.8125 C-9.5625 11.625 -9.5625 11.625 -11.6875 9.8125 C-12.5 7.625 -12.5 7.625 -12.6875 5.8125 C-10.875 5.125 -10.875 5.125 -8.6875 4.8125 C-7.6875 5.8125 -6.6875 6.8125 -5.6875 7.8125 C-3.06179296 8.06319913 -3.06179296 8.06319913 -0.6875 7.8125 C-0.6875 6.4925 -0.6875 5.1725 -0.6875 3.8125 C-3.6575 3.3175 -3.6575 3.3175 -6.6875 2.8125 C-4.2961605 0.59829676 -3.32534138 -0.23200056 0 0 Z " fill="#2C3337" transform="translate(140.6875,72.1875)"/>
<path d="M0 0 C2.31 0 4.62 0 7 0 C7 7.26 7 14.52 7 22 C9.31 22 11.62 22 14 22 C14 16.06 14 10.12 14 4 C14.33 4 14.66 4 15 4 C15 10.6 15 17.2 15 24 C11.7 24 8.4 24 5 24 C5 17.07 5 10.14 5 3 C3.35 3 1.7 3 0 3 C0 2.01 0 1.02 0 0 Z " fill="#141C21" transform="translate(44,31)"/>
<path d="M0 0 C1.32 0 2.64 0 4 0 C4 7.26 4 14.52 4 22 C2.68 22 1.36 22 0 22 C0 14.74 0 7.48 0 0 Z " fill="#1F262A" transform="translate(6,62)"/>
<path d="M0 0 C2.31 0 4.62 0 7 0 C7 0.33 7 0.66 7 1 C5.02 1 3.04 1 1 1 C1 2.98 1 4.96 1 7 C3.31 6.34 5.62 5.68 8 5 C8 4.01 8 3.02 8 2 C12 2 12 2 14 3 C13.505 3.9075 13.01 4.815 12.5 5.75 C10.17573442 10.78590875 11.18072029 13.9969808 13 19 C10.6875 18.875 10.6875 18.875 8 18 C6.1875 14.9375 6.1875 14.9375 5 12 C5.66 11.67 6.32 11.34 7 11 C7 10.01 7 9.02 7 8 C4.69 8 2.38 8 0 8 C0 5.36 0 2.72 0 0 Z " fill="#2F363A" transform="translate(69,65)"/>
<path d="M0 0 C2.66077956 9.51372259 2.66077956 9.51372259 0.625 14.125 C0.08875 15.07375 -0.4475 16.0225 -1 17 C-2.9375 16.625 -2.9375 16.625 -5 16 C-6.47193312 13.05613377 -5.84936173 10.62609964 -5.5625 7.375 C-5.46066406 6.18648438 -5.35882813 4.99796875 -5.25390625 3.7734375 C-5.17011719 2.85820313 -5.08632812 1.94296875 -5 1 C-1.125 0 -1.125 0 0 0 Z " fill="#323D42" transform="translate(88,68)"/>
<path d="M0 0 C0.66 0.33 1.32 0.66 2 1 C2 1.33 2 1.66 2 2 C3.98 2 5.96 2 8 2 C8 2.33 8 2.66 8 3 C5.69 3.66 3.38 4.32 1 5 C1 7.97 1 10.94 1 14 C2.32 14.66 3.64 15.32 5 16 C4.67 17.32 4.34 18.64 4 20 C4 19.34 4 18.68 4 18 C3.236875 17.9175 2.47375 17.835 1.6875 17.75 C-1 17 -1 17 -2.8125 15.4375 C-4.49950512 11.97470001 -4.70251526 8.73442323 -4 5 C-2 2 -2 2 0 0 Z " fill="#2A3135" transform="translate(26,12)"/>
<path d="M0 0 C0.66 0.33 1.32 0.66 2 1 C1.4194679 4.30118794 0.45131901 5.91134076 -1.94140625 8.234375 C-2.52470703 8.80800781 -3.10800781 9.38164062 -3.70898438 9.97265625 C-4.32064453 10.55917969 -4.93230469 11.14570313 -5.5625 11.75 C-6.17802734 12.35199219 -6.79355469 12.95398438 -7.42773438 13.57421875 C-8.94514813 15.05634381 -10.47170596 16.5290967 -12 18 C-13.32 17.34 -14.64 16.68 -16 16 C-15.34 16 -14.68 16 -14 16 C-13.79375 15.443125 -13.5875 14.88625 -13.375 14.3125 C-11.84631641 11.74153214 -9.99311638 10.27320749 -7.6640625 8.4375 C-4.76800864 5.93574455 -2.40798528 2.96301735 0 0 Z " fill="#20272C" transform="translate(48,13)"/>
<path d="M0 0 C0 0.66 0 1.32 0 2 C0.66 2 1.32 2 2 2 C2 6.29 2 10.58 2 15 C1.34 14.67 0.68 14.34 0 14 C0 10.7 0 7.4 0 4 C-5.445 7.96 -5.445 7.96 -11 12 C-11.33 11.34 -11.66 10.68 -12 10 C-12.66 9.67 -13.32 9.34 -14 9 C-12.04594482 7.49412261 -10.08718716 5.99521356 -8.125 4.5 C-7.56941406 4.07074219 -7.01382813 3.64148438 -6.44140625 3.19921875 C-2.2265625 0 -2.2265625 0 0 0 Z " fill="#2B3236" transform="translate(79,13)"/>
<path d="M0 0 C1.65 0 3.3 0 5 0 C5 6.93 5 13.86 5 21 C8.3 21 11.6 21 15 21 C15 16.38 15 11.76 15 7 C15.99 6.67 16.98 6.34 18 6 C17.69268013 8.64653131 17.37940678 11.292115 17.0625 13.9375 C16.97548828 14.69224609 16.88847656 15.44699219 16.79882812 16.22460938 C16.11328125 21.88671875 16.11328125 21.88671875 15 23 C13.33570949 23.09823937 11.66718069 23.12973631 10 23.125 C8.63875 23.12886719 8.63875 23.12886719 7.25 23.1328125 C5 23 5 23 4 22 C3.87958426 20.53581173 3.82052533 19.06645076 3.7890625 17.59765625 C3.76070312 16.70755859 3.73234375 15.81746094 3.703125 14.90039062 C3.65115461 13.01256604 3.60684962 11.12451445 3.5703125 9.23632812 C3.52390625 7.89924805 3.52390625 7.89924805 3.4765625 6.53515625 C3.45674316 5.714104 3.43692383 4.89305176 3.41650391 4.04711914 C3.16989176 1.60427294 3.16989176 1.60427294 0 0 Z " fill="#474D50" transform="translate(44,34)"/>
<path d="M0 0 C2.97 0 5.94 0 9 0 C9 2.64 9 5.28 9 8 C6.03 8 3.06 8 0 8 C0 5.36 0 2.72 0 0 Z " fill="#3A3F43" transform="translate(46,21)"/>
<path d="M0 0 C0.226875 0.5775 0.45375 1.155 0.6875 1.75 C2.78860788 5.35189923 5.21063685 7.51226899 9.29296875 8.625 C10.89240222 8.9504809 12.4982296 9.24640149 14.109375 9.5078125 C14.73328125 9.67023437 15.3571875 9.83265625 16 10 C16.33 10.66 16.66 11.32 17 12 C14.91781638 12.10832169 12.83400871 12.18573541 10.75 12.25 C9.00976562 12.31960937 9.00976562 12.31960937 7.234375 12.390625 C4 12 4 12 1.59375 10.25 C-0.92105989 6.69968016 -0.28363548 4.25453218 0 0 Z " fill="#1E262A" transform="translate(20,43)"/>
<path d="M0 0 C1.22589844 0.01353516 1.22589844 0.01353516 2.4765625 0.02734375 C3.41628906 0.04474609 3.41628906 0.04474609 4.375 0.0625 C4.375 3.0625 4.375 3.0625 3.375 5.0625 C-0.255 5.0625 -3.885 5.0625 -7.625 5.0625 C-7.295 3.7425 -6.965 2.4225 -6.625 1.0625 C-4.21954362 -0.14022819 -2.67503047 -0.03821472 0 0 Z " fill="#DA8730" transform="translate(87.625,56.9375)"/>
<path d="M0 0 C6.49013668 -0.36736623 6.49013668 -0.36736623 8.7121582 1.23364258 C10.34244046 3.469679 10.34827833 4.70217641 10.29296875 7.44921875 C10.28330078 8.29677734 10.27363281 9.14433594 10.26367188 10.01757812 C10.23853516 10.89865234 10.21339844 11.77972656 10.1875 12.6875 C10.17396484 13.58017578 10.16042969 14.47285156 10.14648438 15.39257812 C10.11114079 17.59566166 10.06180493 19.79752582 10 22 C9.67 22 9.34 22 9 22 C8.67 16.06 8.34 10.12 8 4 C7.34 4.66 6.68 5.32 6 6 C6 5.34 6 4.68 6 4 C3.69 3.67 1.38 3.34 -1 3 C-0.67 2.01 -0.34 1.02 0 0 Z " fill="#242B2F" transform="translate(67,31)"/>
<path d="M0 0 C0.33 0 0.66 0 1 0 C1 5.61 1 11.22 1 17 C1.99 17 2.98 17 4 17 C4 15.02 4 13.04 4 11 C4.33 11 4.66 11 5 11 C5.28875 12.11375 5.5775 13.2275 5.875 14.375 C6.69241329 18.00291092 6.69241329 18.00291092 9 20 C5.04 20.33 1.08 20.66 -3 21 C-3.33 20.34 -3.66 19.68 -4 19 C-2.68 18.67 -1.36 18.34 0 18 C0 12.06 0 6.12 0 0 Z " fill="#505457" transform="translate(100,36)"/>
<path d="M0 0 C0.99 0.33 1.98 0.66 3 1 C3 7.6 3 14.2 3 21 C4.32 21.33 5.64 21.66 7 22 C5.02 22 3.04 22 1 22 C0.67 14.74 0.34 7.48 0 0 Z " fill="#131B21" transform="translate(97,33)"/>
<path d="M0 0 C0.99 0 1.98 0 3 0 C3 5.94 3 11.88 3 18 C2.67 18 2.34 18 2 18 C1.04738513 13.23692563 0.91666643 8.8333472 1 4 C0.34 4 -0.32 4 -1 4 C-0.67 2.68 -0.34 1.36 0 0 Z " fill="#1C2428" transform="translate(80,11)"/>
<path d="M0 0 C3.7952131 1.49097658 5.61042731 3.75700849 8 7 C5.1875 7.25 5.1875 7.25 2 7 C0.0625 5.1875 0.0625 5.1875 -1 3 C-0.67 2.01 -0.34 1.02 0 0 Z " fill="#31373B" transform="translate(50,11)"/>
<path d="M0 0 C2.97 0 5.94 0 9 0 C9.66 1.65 10.32 3.3 11 5 C9.68 5.33 8.36 5.66 7 6 C7 4.68 7 3.36 7 2 C4.69 2 2.38 2 0 2 C0 1.34 0 0.68 0 0 Z " fill="#20272C" transform="translate(133,63)"/>
<path d="M0 0 C2.3125 0.8125 2.3125 0.8125 3.3125 2.8125 C3.352492 4.81210012 3.35596799 6.81297242 3.3125 8.8125 C2.9825 8.8125 2.6525 8.8125 2.3125 8.8125 C2.3125 7.1625 2.3125 5.5125 2.3125 3.8125 C1.6525 3.8125 0.9925 3.8125 0.3125 3.8125 C-0.0175 5.1325 -0.3475 6.4525 -0.6875 7.8125 C-0.6875 6.4925 -0.6875 5.1725 -0.6875 3.8125 C-3.6575 3.3175 -3.6575 3.3175 -6.6875 2.8125 C-4.2961605 0.59829676 -3.32534138 -0.23200056 0 0 Z " fill="#353B3F" transform="translate(140.6875,72.1875)"/>
<path d="M0 0 C2.02350324 3.03525486 2.32124018 4.19426202 2.625 7.6875 C2.69976562 8.49574219 2.77453125 9.30398437 2.8515625 10.13671875 C2.90054688 10.75160156 2.94953125 11.36648437 3 12 C1.68 11.67 0.36 11.34 -1 11 C-1.14285714 3.57142857 -1.14285714 3.57142857 0 0 Z " fill="#0E181E" transform="translate(85,69)"/>
<path d="M0 0 C0 0.33 0 0.66 0 1 C-2.31 1 -4.62 1 -7 1 C-7 1.66 -7 2.32 -7 3 C-4.69 3 -2.38 3 0 3 C-0.33 3.66 -0.66 4.32 -1 5 C-3.64 5 -6.28 5 -9 5 C-9.66 6.32 -10.32 7.64 -11 9 C-11.35555556 3.66666667 -11.35555556 3.66666667 -10 1.125 C-6.74686316 -0.70488947 -3.68609891 -0.18128355 0 0 Z " fill="#32393C" transform="translate(140,62)"/>
<path d="M0 0 C1.43655854 -0.08131463 2.8744483 -0.13933559 4.3125 -0.1875 C5.51326172 -0.23970703 5.51326172 -0.23970703 6.73828125 -0.29296875 C9.47851584 0.06198392 10.29171079 0.89366282 12 3 C11.01 3.495 11.01 3.495 10 4 C9.67 4.66 9.34 5.32 9 6 C7.02 5.34 5.04 4.68 3 4 C3 3.34 3 2.68 3 2 C2.01 1.34 1.02 0.68 0 0 Z " fill="#2F3639" transform="translate(95,62)"/>
<path d="M0 0 C0 0.66 0 1.32 0 2 C0.66 2 1.32 2 2 2 C2 6.29 2 10.58 2 15 C1.34 14.67 0.68 14.34 0 14 C0 10.7 0 7.4 0 4 C-0.99 4.495 -0.99 4.495 -2 5 C-2 4.34 -2 3.68 -2 3 C-3.32 3.33 -4.64 3.66 -6 4 C-2.25 0 -2.25 0 0 0 Z " fill="#383E41" transform="translate(79,13)"/>
<path d="M0 0 C0.99 0 1.98 0 3 0 C3 1.32 3 2.64 3 4 C5.97 4.495 5.97 4.495 9 5 C9 5.33 9 5.66 9 6 C2.9453125 6.1953125 2.9453125 6.1953125 1 6 C0.34 5.34 -0.32 4.68 -1 4 C-0.625 1.875 -0.625 1.875 0 0 Z " fill="#252C30" transform="translate(129,77)"/>
<path d="M0 0 C0.66 0.33 1.32 0.66 2 1 C2 1.33 2 1.66 2 2 C3.98 2 5.96 2 8 2 C8 2.33 8 2.66 8 3 C5.69 3.66 3.38 4.32 1 5 C0.67 6.65 0.34 8.3 0 10 C-0.33 10 -0.66 10 -1 10 C-1 8.35 -1 6.7 -1 5 C-1.66 5 -2.32 5 -3 5 C-1.125 1.125 -1.125 1.125 0 0 Z " fill="#333A3D" transform="translate(26,12)"/>
<path d="M0 0 C1.670625 0.061875 1.670625 0.061875 3.375 0.125 C2.385 0.455 1.395 0.785 0.375 1.125 C0.375 1.785 0.375 2.445 0.375 3.125 C-1.605 4.115 -3.585 5.105 -5.625 6.125 C-5.625 0.92300404 -5.21373417 0.17978394 0 0 Z " fill="#282E32" transform="translate(91.625,31.875)"/>
<path d="M0 0 C2.475 0.99 2.475 0.99 5 2 C5 5.3 5 8.6 5 12 C4.67 12 4.34 12 4 12 C3.67 9.36 3.34 6.72 3 4 C2.34 4 1.68 4 1 4 C0.67 2.68 0.34 1.36 0 0 Z " fill="#141C21" transform="translate(104,64)"/>
<path d="M0 0 C2.62386487 3.06117568 3 3.73173127 3 8 C3.99 8.33 4.98 8.66 6 9 C5.01 9.33 4.02 9.66 3 10 C2.67 10.66 2.34 11.32 2 12 C-0.60018816 8.09971775 -0.15085514 4.52565431 0 0 Z " fill="#262D31" transform="translate(89,69)"/>
<path d="M0 0 C2.64 0 5.28 0 8 0 C8 0.99 8 1.98 8 3 C5.36 3 2.72 3 0 3 C0 2.01 0 1.02 0 0 Z " fill="#19738F" transform="translate(81,63)"/>
<path d="M0 0 C1.9375 0.75 1.9375 0.75 4 2 C4.75 4.125 4.75 4.125 5 6 C3.35 5.67 1.7 5.34 0 5 C-0.33 4.01 -0.66 3.02 -1 2 C-0.67 1.34 -0.34 0.68 0 0 Z " fill="#21292D" transform="translate(123,78)"/>
<path d="M0 0 C0.625 1.875 0.625 1.875 1 4 C0.34 4.66 -0.32 5.32 -1 6 C-3.625 5.625 -3.625 5.625 -6 5 C-5.67 4.34 -5.34 3.68 -5 3 C-3.68 3 -2.36 3 -1 3 C-0.67 2.01 -0.34 1.02 0 0 Z " fill="#1E252A" transform="translate(43,48)"/>
<path d="M0 0 C2.31 0.66 4.62 1.32 7 2 C6.34 3.32 5.68 4.64 5 6 C3.31237149 4.3545622 1.6459651 2.68711423 0 1 C0 0.67 0 0.34 0 0 Z " fill="#20282C" transform="translate(35,32)"/>
<path d="M0 0 C0.99 0.33 1.98 0.66 3 1 C3.33 2.65 3.66 4.3 4 6 C2.33333333 6 0.66666667 6 -1 6 C-1.33 5.01 -1.66 4.02 -2 3 C-1.34 2.01 -0.68 1.02 0 0 Z " fill="#3C4346" transform="translate(122,74)"/>
<path d="M0 0 C0.66 0 1.32 0 2 0 C2.33 2.31 2.66 4.62 3 7 C3.99 7.33 4.98 7.66 6 8 C1.125 7.125 1.125 7.125 0 6 C-0.04080783 4.00041636 -0.04254356 1.99954746 0 0 Z " fill="#10191E" transform="translate(105,47)"/>
<path d="M0 0 C0.66 0 1.32 0 2 0 C1.625 1.9375 1.625 1.9375 1 4 C-1.6666419 5.33332095 -3.16680303 4.67102033 -6 4 C-5.67 3.34 -5.34 2.68 -5 2 C-3.67696283 1.6278958 -2.34262065 1.29369827 -1 1 C-0.67 0.67 -0.34 0.34 0 0 Z " fill="#3C4145" transform="translate(129,50)"/>
<path d="M0 0 C1.32 0 2.64 0 4 0 C3.34 2.64 2.68 5.28 2 8 C1.67 8 1.34 8 1 8 C1 6.35 1 4.7 1 3 C0.34 3 -0.32 3 -1 3 C-0.67 2.01 -0.34 1.02 0 0 Z " fill="#272E33" transform="translate(106,44)"/>
<path d="M0 0 C0.99 0 1.98 0 3 0 C3 1.98 3 3.96 3 6 C2.01 6 1.02 6 0 6 C0 4.02 0 2.04 0 0 Z " fill="#151E22" transform="translate(51,22)"/>
<path d="M0 0 C0.99 0 1.98 0 3 0 C3 1.98 3 3.96 3 6 C2.01 6 1.02 6 0 6 C0 4.02 0 2.04 0 0 Z " fill="#151D22" transform="translate(47,22)"/>
<path d="M0 0 C0 0.66 0 1.32 0 2 C-2.31 2.33 -4.62 2.66 -7 3 C-7 2.34 -7 1.68 -7 1 C-4.53721199 -0.231394 -2.7204945 -0.07159196 0 0 Z " fill="#353B3F" transform="translate(116,54)"/>
<path d="" fill="#F6F6F5" transform="translate(0,0)"/>
</svg>
